<mxfile host="www.draw.io" modified="2019-11-27T07:47:08.729Z" agent="Mozilla/5.0 (Windows NT 6.1; Win64; x64) AppleWebKit/537.36 (KHTML, like Gecko) Chrome/74.0.3729.169 Safari/537.36" etag="olup_4LoJQ0ZFvAgFUJ4" version="12.3.1" type="github" pages="1">
  <diagram name="Page-1" id="74e2e168-ea6b-b213-b513-2b3c1d86103e">
    <mxGraphModel dx="868" dy="492" grid="1" gridSize="10" guides="1" tooltips="1" connect="1" arrows="1" fold="1" page="1" pageScale="1" pageWidth="1100" pageHeight="850" background="#ffffff" math="0" shadow="0">
      <root>
        <mxCell id="0"/>
        <mxCell id="1" parent="0"/>
        <mxCell id="77e6c97f196da883-1" value="Pool" style="swimlane;html=1;childLayout=stackLayout;startSize=20;rounded=0;shadow=0;labelBackgroundColor=none;strokeWidth=1;fontFamily=Verdana;fontSize=8;align=center;" parent="1" vertex="1">
          <mxGeometry x="70" y="40" width="960" height="750" as="geometry"/>
        </mxCell>
        <mxCell id="77e6c97f196da883-2" value="核心日终" style="swimlane;html=1;startSize=20;" parent="77e6c97f196da883-1" vertex="1">
          <mxGeometry y="20" width="160" height="730" as="geometry"/>
        </mxCell>
        <mxCell id="0FBdxrHQd62nGUH8HJ8Z-40" style="edgeStyle=orthogonalEdgeStyle;rounded=0;orthogonalLoop=1;jettySize=auto;html=1;exitX=0.5;exitY=1;exitDx=0;exitDy=0;entryX=0.5;entryY=0;entryDx=0;entryDy=0;" edge="1" parent="77e6c97f196da883-2" source="77e6c97f196da883-8" target="0FBdxrHQd62nGUH8HJ8Z-17">
          <mxGeometry relative="1" as="geometry"/>
        </mxCell>
        <mxCell id="77e6c97f196da883-8" value="。。。" style="rounded=1;whiteSpace=wrap;html=1;shadow=0;labelBackgroundColor=none;strokeWidth=1;fontFamily=Verdana;fontSize=8;align=center;" parent="77e6c97f196da883-2" vertex="1">
          <mxGeometry x="20" y="110" width="100" height="60" as="geometry"/>
        </mxCell>
        <mxCell id="77e6c97f196da883-9" value="。。。" style="rounded=1;whiteSpace=wrap;html=1;shadow=0;labelBackgroundColor=none;strokeWidth=1;fontFamily=Verdana;fontSize=8;align=center;" parent="77e6c97f196da883-2" vertex="1">
          <mxGeometry x="30" y="570" width="100" height="60" as="geometry"/>
        </mxCell>
        <mxCell id="0FBdxrHQd62nGUH8HJ8Z-42" style="edgeStyle=orthogonalEdgeStyle;rounded=0;orthogonalLoop=1;jettySize=auto;html=1;entryX=0.4;entryY=0.167;entryDx=0;entryDy=0;entryPerimeter=0;" edge="1" parent="77e6c97f196da883-2" source="0FBdxrHQd62nGUH8HJ8Z-15" target="77e6c97f196da883-9">
          <mxGeometry relative="1" as="geometry"/>
        </mxCell>
        <mxCell id="0FBdxrHQd62nGUH8HJ8Z-15" value="生成催收数据" style="rounded=1;whiteSpace=wrap;html=1;shadow=0;labelBackgroundColor=none;strokeWidth=1;fontFamily=Verdana;fontSize=8;align=center;" vertex="1" parent="77e6c97f196da883-2">
          <mxGeometry x="20" y="341" width="100" height="69" as="geometry"/>
        </mxCell>
        <mxCell id="0FBdxrHQd62nGUH8HJ8Z-41" style="edgeStyle=orthogonalEdgeStyle;rounded=0;orthogonalLoop=1;jettySize=auto;html=1;entryX=0.5;entryY=0;entryDx=0;entryDy=0;" edge="1" parent="77e6c97f196da883-2" source="0FBdxrHQd62nGUH8HJ8Z-17" target="0FBdxrHQd62nGUH8HJ8Z-15">
          <mxGeometry relative="1" as="geometry"/>
        </mxCell>
        <mxCell id="0FBdxrHQd62nGUH8HJ8Z-17" value="" style="rounded=1;whiteSpace=wrap;html=1;shadow=0;labelBackgroundColor=none;strokeWidth=1;fontFamily=Verdana;fontSize=8;align=center;" vertex="1" parent="77e6c97f196da883-2">
          <mxGeometry x="20" y="240" width="100" height="60" as="geometry"/>
        </mxCell>
        <mxCell id="0FBdxrHQd62nGUH8HJ8Z-39" style="edgeStyle=orthogonalEdgeStyle;rounded=0;orthogonalLoop=1;jettySize=auto;html=1;entryX=0.42;entryY=-0.017;entryDx=0;entryDy=0;entryPerimeter=0;" edge="1" parent="77e6c97f196da883-2" source="0FBdxrHQd62nGUH8HJ8Z-37" target="77e6c97f196da883-8">
          <mxGeometry relative="1" as="geometry"/>
        </mxCell>
        <mxCell id="0FBdxrHQd62nGUH8HJ8Z-37" value="" style="ellipse;whiteSpace=wrap;html=1;aspect=fixed;fillColor=#d5e8d4;strokeColor=#82b366;" vertex="1" parent="77e6c97f196da883-2">
          <mxGeometry x="40" y="40" width="40" height="40" as="geometry"/>
        </mxCell>
        <mxCell id="77e6c97f196da883-3" value="催收数据源" style="swimlane;html=1;startSize=20;" parent="77e6c97f196da883-1" vertex="1">
          <mxGeometry x="160" y="20" width="160" height="730" as="geometry"/>
        </mxCell>
        <mxCell id="77e6c97f196da883-11" value="YBD(7--8:00)" style="rounded=1;whiteSpace=wrap;html=1;shadow=0;labelBackgroundColor=none;strokeWidth=1;fontFamily=Verdana;fontSize=8;align=center;" parent="77e6c97f196da883-3" vertex="1">
          <mxGeometry x="30" y="65" width="110" height="65" as="geometry"/>
        </mxCell>
        <mxCell id="0FBdxrHQd62nGUH8HJ8Z-1" value="XW(3-5：00)" style="rounded=1;whiteSpace=wrap;html=1;shadow=0;labelBackgroundColor=none;strokeWidth=1;fontFamily=Verdana;fontSize=8;align=center;" vertex="1" parent="77e6c97f196da883-3">
          <mxGeometry x="30" y="170" width="100" height="60" as="geometry"/>
        </mxCell>
        <mxCell id="0FBdxrHQd62nGUH8HJ8Z-2" value="YRD(3--5:00)" style="rounded=1;whiteSpace=wrap;html=1;shadow=0;labelBackgroundColor=none;strokeWidth=1;fontFamily=Verdana;fontSize=8;align=center;" vertex="1" parent="77e6c97f196da883-3">
          <mxGeometry x="30" y="260" width="110" height="65" as="geometry"/>
        </mxCell>
        <mxCell id="77e6c97f196da883-4" value="催收前置" style="swimlane;html=1;startSize=20;" parent="77e6c97f196da883-1" vertex="1">
          <mxGeometry x="320" y="20" width="160" height="730" as="geometry"/>
        </mxCell>
        <mxCell id="77e6c97f196da883-12" value="对数据进行处理，提供奥信使用" style="rounded=1;whiteSpace=wrap;html=1;shadow=0;labelBackgroundColor=none;strokeWidth=1;fontFamily=Verdana;fontSize=8;align=center;" parent="77e6c97f196da883-4" vertex="1">
          <mxGeometry x="30" y="340" width="100" height="60" as="geometry"/>
        </mxCell>
        <mxCell id="77e6c97f196da883-5" value="奥信" style="swimlane;html=1;startSize=20;" parent="77e6c97f196da883-1" vertex="1">
          <mxGeometry x="480" y="20" width="160" height="730" as="geometry"/>
        </mxCell>
        <mxCell id="0FBdxrHQd62nGUH8HJ8Z-20" style="edgeStyle=orthogonalEdgeStyle;rounded=0;orthogonalLoop=1;jettySize=auto;html=1;entryX=0.5;entryY=0;entryDx=0;entryDy=0;" edge="1" parent="77e6c97f196da883-5" source="77e6c97f196da883-17" target="0FBdxrHQd62nGUH8HJ8Z-5">
          <mxGeometry relative="1" as="geometry"/>
        </mxCell>
        <mxCell id="77e6c97f196da883-17" value="&lt;span style=&quot;color: rgb(51 , 51 , 51) ; font-family: &amp;#34;segoe ui&amp;#34; , &amp;#34;helvetica neue&amp;#34; , &amp;#34;helvetica&amp;#34; , &amp;#34;arial&amp;#34; , &amp;#34;verdana&amp;#34; , &amp;#34;microsoft yahei&amp;#34; , &amp;#34;hiragino sans gb&amp;#34; , ; font-size: 14px ; white-space: pre-wrap ; background-color: rgb(255 , 247 , 210)&quot;&gt;客户出催&lt;/span&gt;" style="rounded=1;whiteSpace=wrap;html=1;shadow=0;labelBackgroundColor=none;strokeWidth=1;fontFamily=Verdana;fontSize=8;align=center;" parent="77e6c97f196da883-5" vertex="1">
          <mxGeometry x="20" y="200" width="100" height="55" as="geometry"/>
        </mxCell>
        <mxCell id="0FBdxrHQd62nGUH8HJ8Z-21" style="edgeStyle=orthogonalEdgeStyle;rounded=0;orthogonalLoop=1;jettySize=auto;html=1;entryX=0.5;entryY=0;entryDx=0;entryDy=0;" edge="1" parent="77e6c97f196da883-5" source="0FBdxrHQd62nGUH8HJ8Z-5" target="0FBdxrHQd62nGUH8HJ8Z-9">
          <mxGeometry relative="1" as="geometry"/>
        </mxCell>
        <mxCell id="0FBdxrHQd62nGUH8HJ8Z-5" value="&lt;span style=&quot;color: rgb(51 , 51 , 51) ; font-family: &amp;#34;segoe ui&amp;#34; , &amp;#34;helvetica neue&amp;#34; , &amp;#34;helvetica&amp;#34; , &amp;#34;arial&amp;#34; , &amp;#34;verdana&amp;#34; , &amp;#34;microsoft yahei&amp;#34; , &amp;#34;hiragino sans gb&amp;#34; , ; font-size: 14px ; white-space: pre-wrap ; background-color: rgb(255 , 247 , 210)&quot;&gt;数据预处理&lt;/span&gt;" style="rounded=1;whiteSpace=wrap;html=1;shadow=0;labelBackgroundColor=none;strokeWidth=1;fontFamily=Verdana;fontSize=8;align=center;" vertex="1" parent="77e6c97f196da883-5">
          <mxGeometry x="20" y="337" width="100" height="55" as="geometry"/>
        </mxCell>
        <mxCell id="0FBdxrHQd62nGUH8HJ8Z-19" style="edgeStyle=orthogonalEdgeStyle;rounded=0;orthogonalLoop=1;jettySize=auto;html=1;entryX=0.5;entryY=0;entryDx=0;entryDy=0;" edge="1" parent="77e6c97f196da883-5" source="0FBdxrHQd62nGUH8HJ8Z-8" target="77e6c97f196da883-17">
          <mxGeometry relative="1" as="geometry"/>
        </mxCell>
        <mxCell id="0FBdxrHQd62nGUH8HJ8Z-8" value="&lt;span style=&quot;color: rgb(51 , 51 , 51) ; font-family: &amp;#34;segoe ui&amp;#34; , &amp;#34;helvetica neue&amp;#34; , &amp;#34;helvetica&amp;#34; , &amp;#34;arial&amp;#34; , &amp;#34;verdana&amp;#34; , &amp;#34;microsoft yahei&amp;#34; , &amp;#34;hiragino sans gb&amp;#34; , ; font-size: 14px ; white-space: pre-wrap ; background-color: rgb(255 , 247 , 210)&quot;&gt;...&lt;/span&gt;" style="rounded=1;whiteSpace=wrap;html=1;shadow=0;labelBackgroundColor=none;strokeWidth=1;fontFamily=Verdana;fontSize=8;align=center;" vertex="1" parent="77e6c97f196da883-5">
          <mxGeometry x="20" y="90" width="100" height="40" as="geometry"/>
        </mxCell>
        <mxCell id="0FBdxrHQd62nGUH8HJ8Z-9" value="&lt;span style=&quot;color: rgb(51 , 51 , 51) ; font-family: &amp;#34;segoe ui&amp;#34; , &amp;#34;helvetica neue&amp;#34; , &amp;#34;helvetica&amp;#34; , &amp;#34;arial&amp;#34; , &amp;#34;verdana&amp;#34; , &amp;#34;microsoft yahei&amp;#34; , &amp;#34;hiragino sans gb&amp;#34; , ; font-size: 14px ; white-space: pre-wrap ; background-color: rgb(255 , 247 , 210)&quot;&gt;...&lt;/span&gt;" style="rounded=1;whiteSpace=wrap;html=1;shadow=0;labelBackgroundColor=none;strokeWidth=1;fontFamily=Verdana;fontSize=8;align=center;" vertex="1" parent="77e6c97f196da883-5">
          <mxGeometry x="20" y="450" width="100" height="55" as="geometry"/>
        </mxCell>
        <mxCell id="77e6c97f196da883-6" value="催收" style="swimlane;html=1;startSize=20;" parent="77e6c97f196da883-1" vertex="1">
          <mxGeometry x="640" y="20" width="160" height="730" as="geometry"/>
        </mxCell>
        <mxCell id="77e6c97f196da883-18" value="催收员催收" style="rounded=1;whiteSpace=wrap;html=1;shadow=0;labelBackgroundColor=none;strokeWidth=1;fontFamily=Verdana;fontSize=8;align=center;" parent="77e6c97f196da883-6" vertex="1">
          <mxGeometry x="10" y="225" width="100" height="60" as="geometry"/>
        </mxCell>
        <mxCell id="77e6c97f196da883-7" value="客户行为" style="swimlane;html=1;startSize=20;" parent="77e6c97f196da883-1" vertex="1">
          <mxGeometry x="800" y="20" width="160" height="730" as="geometry"/>
        </mxCell>
        <mxCell id="0FBdxrHQd62nGUH8HJ8Z-25" style="edgeStyle=orthogonalEdgeStyle;rounded=0;orthogonalLoop=1;jettySize=auto;html=1;exitX=0.5;exitY=1;exitDx=0;exitDy=0;entryX=0.5;entryY=0;entryDx=0;entryDy=0;" edge="1" parent="77e6c97f196da883-7" source="0FBdxrHQd62nGUH8HJ8Z-11" target="0FBdxrHQd62nGUH8HJ8Z-24">
          <mxGeometry relative="1" as="geometry"/>
        </mxCell>
        <mxCell id="0FBdxrHQd62nGUH8HJ8Z-11" value="客户还款" style="rounded=1;whiteSpace=wrap;html=1;shadow=0;labelBackgroundColor=none;strokeWidth=1;fontFamily=Verdana;fontSize=8;align=center;" vertex="1" parent="77e6c97f196da883-7">
          <mxGeometry x="30" y="290" width="100" height="60" as="geometry"/>
        </mxCell>
        <mxCell id="0FBdxrHQd62nGUH8HJ8Z-28" style="edgeStyle=orthogonalEdgeStyle;rounded=0;orthogonalLoop=1;jettySize=auto;html=1;entryX=0.5;entryY=0;entryDx=0;entryDy=0;" edge="1" parent="77e6c97f196da883-7" source="0FBdxrHQd62nGUH8HJ8Z-24" target="0FBdxrHQd62nGUH8HJ8Z-26">
          <mxGeometry relative="1" as="geometry"/>
        </mxCell>
        <mxCell id="0FBdxrHQd62nGUH8HJ8Z-24" value="是否还款" style="rhombus;whiteSpace=wrap;html=1;" vertex="1" parent="77e6c97f196da883-7">
          <mxGeometry x="50" y="390" width="60" height="50" as="geometry"/>
        </mxCell>
        <mxCell id="0FBdxrHQd62nGUH8HJ8Z-33" style="edgeStyle=orthogonalEdgeStyle;rounded=0;orthogonalLoop=1;jettySize=auto;html=1;entryX=0.5;entryY=0;entryDx=0;entryDy=0;" edge="1" parent="77e6c97f196da883-7" source="0FBdxrHQd62nGUH8HJ8Z-26" target="0FBdxrHQd62nGUH8HJ8Z-30">
          <mxGeometry relative="1" as="geometry"/>
        </mxCell>
        <mxCell id="0FBdxrHQd62nGUH8HJ8Z-26" value="结算" style="rounded=1;whiteSpace=wrap;html=1;shadow=0;labelBackgroundColor=none;strokeWidth=1;fontFamily=Verdana;fontSize=8;align=center;" vertex="1" parent="77e6c97f196da883-7">
          <mxGeometry x="30" y="480" width="100" height="60" as="geometry"/>
        </mxCell>
        <mxCell id="0FBdxrHQd62nGUH8HJ8Z-30" value="" style="ellipse;whiteSpace=wrap;html=1;aspect=fixed;fillColor=#f8cecc;strokeColor=#b85450;" vertex="1" parent="77e6c97f196da883-7">
          <mxGeometry x="65" y="580" width="30" height="30" as="geometry"/>
        </mxCell>
        <mxCell id="0FBdxrHQd62nGUH8HJ8Z-34" style="edgeStyle=orthogonalEdgeStyle;rounded=0;orthogonalLoop=1;jettySize=auto;html=1;entryX=1;entryY=0.5;entryDx=0;entryDy=0;" edge="1" parent="77e6c97f196da883-7" source="0FBdxrHQd62nGUH8HJ8Z-24" target="0FBdxrHQd62nGUH8HJ8Z-30">
          <mxGeometry relative="1" as="geometry">
            <mxPoint x="150" y="590" as="targetPoint"/>
            <Array as="points">
              <mxPoint x="150" y="440"/>
              <mxPoint x="150" y="595"/>
            </Array>
          </mxGeometry>
        </mxCell>
        <mxCell id="0FBdxrHQd62nGUH8HJ8Z-35" value="Y" style="text;html=1;strokeColor=none;fillColor=none;align=center;verticalAlign=middle;whiteSpace=wrap;rounded=0;" vertex="1" parent="77e6c97f196da883-7">
          <mxGeometry x="40" y="450" width="40" height="20" as="geometry"/>
        </mxCell>
        <mxCell id="0FBdxrHQd62nGUH8HJ8Z-36" value="N" style="text;html=1;strokeColor=none;fillColor=none;align=center;verticalAlign=middle;whiteSpace=wrap;rounded=0;" vertex="1" parent="77e6c97f196da883-7">
          <mxGeometry x="120" y="415" width="40" height="20" as="geometry"/>
        </mxCell>
        <mxCell id="0FBdxrHQd62nGUH8HJ8Z-12" style="edgeStyle=orthogonalEdgeStyle;rounded=0;orthogonalLoop=1;jettySize=auto;html=1;entryX=0.5;entryY=0;entryDx=0;entryDy=0;" edge="1" parent="77e6c97f196da883-1" source="77e6c97f196da883-11" target="77e6c97f196da883-12">
          <mxGeometry relative="1" as="geometry"/>
        </mxCell>
        <mxCell id="0FBdxrHQd62nGUH8HJ8Z-14" style="edgeStyle=orthogonalEdgeStyle;rounded=0;orthogonalLoop=1;jettySize=auto;html=1;" edge="1" parent="77e6c97f196da883-1" source="0FBdxrHQd62nGUH8HJ8Z-2" target="77e6c97f196da883-12">
          <mxGeometry relative="1" as="geometry"/>
        </mxCell>
        <mxCell id="0FBdxrHQd62nGUH8HJ8Z-16" style="edgeStyle=orthogonalEdgeStyle;rounded=0;orthogonalLoop=1;jettySize=auto;html=1;" edge="1" parent="77e6c97f196da883-1" source="0FBdxrHQd62nGUH8HJ8Z-15" target="77e6c97f196da883-12">
          <mxGeometry relative="1" as="geometry"/>
        </mxCell>
        <mxCell id="0FBdxrHQd62nGUH8HJ8Z-18" style="edgeStyle=orthogonalEdgeStyle;rounded=0;orthogonalLoop=1;jettySize=auto;html=1;entryX=0;entryY=0.25;entryDx=0;entryDy=0;" edge="1" parent="77e6c97f196da883-1" source="77e6c97f196da883-12" target="0FBdxrHQd62nGUH8HJ8Z-8">
          <mxGeometry relative="1" as="geometry"/>
        </mxCell>
        <mxCell id="0FBdxrHQd62nGUH8HJ8Z-22" style="edgeStyle=orthogonalEdgeStyle;rounded=0;orthogonalLoop=1;jettySize=auto;html=1;entryX=0;entryY=0.5;entryDx=0;entryDy=0;" edge="1" parent="77e6c97f196da883-1" source="0FBdxrHQd62nGUH8HJ8Z-9" target="77e6c97f196da883-18">
          <mxGeometry relative="1" as="geometry"/>
        </mxCell>
        <mxCell id="0FBdxrHQd62nGUH8HJ8Z-23" style="edgeStyle=orthogonalEdgeStyle;rounded=0;orthogonalLoop=1;jettySize=auto;html=1;" edge="1" parent="77e6c97f196da883-1" source="77e6c97f196da883-18" target="0FBdxrHQd62nGUH8HJ8Z-11">
          <mxGeometry relative="1" as="geometry"/>
        </mxCell>
        <mxCell id="0FBdxrHQd62nGUH8HJ8Z-13" style="edgeStyle=orthogonalEdgeStyle;rounded=0;orthogonalLoop=1;jettySize=auto;html=1;" edge="1" parent="1" source="0FBdxrHQd62nGUH8HJ8Z-1">
          <mxGeometry relative="1" as="geometry">
            <mxPoint x="470" y="350" as="targetPoint"/>
          </mxGeometry>
        </mxCell>
      </root>
    </mxGraphModel>
  </diagram>
</mxfile>
